<svg width="22" height="22" viewBox="0 0 22 22" fill="none" xmlns="http://www.w3.org/2000/svg">
<g opacity="0.6">
<path d="M8.58812 11.0019L15.3101 4.27987C15.6031 3.98687 15.6031 3.51287 15.3101 3.21987C15.0171 2.92687 14.5421 2.92687 14.2491 3.21987L6.47012 10.9989L14.2061 18.7789C14.3531 18.9269 14.5451 18.9999 14.7371 18.9999C14.9291 18.9999 15.1201 18.9279 15.2671 18.7819C15.5601 18.4899 15.5621 18.0149 15.2701 17.7219L8.58812 11.0019Z" fill="black"/>
<mask id="mask0_14_627" style="mask-type:luminance" maskUnits="userSpaceOnUse" x="6" y="3" width="10" height="16">
<path d="M8.58812 11.0019L15.3101 4.27987C15.6031 3.98687 15.6031 3.51287 15.3101 3.21987C15.0171 2.92687 14.5421 2.92687 14.2491 3.21987L6.47012 10.9989L14.2061 18.7789C14.3531 18.9269 14.5451 18.9999 14.7371 18.9999C14.9291 18.9999 15.1201 18.9279 15.2671 18.7819C15.5601 18.4899 15.5621 18.0149 15.2701 17.7219L8.58812 11.0019Z" fill="white"/>
</mask>
<g mask="url(#mask0_14_627)">
</g>
</g>
</svg>
