<svg width="18" height="12" viewBox="0 0 18 12" fill="none" xmlns="http://www.w3.org/2000/svg">
<path fill-rule="evenodd" clip-rule="evenodd" d="M17 0H16C15.4477 0 15 0.50368 15 1.125V10.875C15 11.4963 15.4477 12 16 12H17C17.5523 12 18 11.4963 18 10.875V1.125C18 0.50368 17.5523 0 17 0ZM11 3H12C12.5523 3 13 3.48353 13 4.08V10.92C13 11.5165 12.5523 12 12 12H11C10.4477 12 10 11.5165 10 10.92V4.08C10 3.48353 10.4477 3 11 3ZM7 5H6C5.44772 5 5 5.52233 5 6.16667V10.8333C5 11.4777 5.44772 12 6 12H7C7.55228 12 8 11.4777 8 10.8333V6.16667C8 5.52233 7.55228 5 7 5ZM2 7H1C0.447715 7 0 7.55964 0 8.25V10.75C0 11.4404 0.447715 12 1 12H2C2.55228 12 3 11.4404 3 10.75V8.25C3 7.55964 2.55228 7 2 7Z" fill="#170E2B"/>
</svg>
