<svg width="16" height="12" viewBox="0 0 16 12" fill="none" xmlns="http://www.w3.org/2000/svg">
<path fill-rule="evenodd" clip-rule="evenodd" d="M8.00044 2.4006C10.3219 2.40071 12.5546 3.29823 14.2371 4.90768C14.3638 5.03194 14.5663 5.03037 14.691 4.90417L15.9021 3.67435C15.9653 3.61034 16.0005 3.52363 16 3.43342C15.9995 3.34321 15.9632 3.25692 15.8993 3.19366C11.4834 -1.06455 4.51678 -1.06455 0.100859 3.19366C0.0368916 3.25688 0.000597157 3.34314 7.30289e-06 3.43335C-0.000582551 3.52356 0.0345808 3.61029 0.0977163 3.67435L1.30914 4.90417C1.43384 5.03056 1.6365 5.03213 1.76312 4.90768C3.44579 3.29813 5.67875 2.4006 8.00044 2.4006ZM7.99881 6.50849C9.22254 6.50841 10.4026 7.00652 11.3097 7.90604C11.4324 8.0337 11.6256 8.03094 11.7452 7.8998L12.9058 6.61563C12.967 6.54827 13.0009 6.45689 13 6.36194C12.9991 6.26699 12.9635 6.17638 12.9011 6.1104C10.1389 3.29653 5.86111 3.29653 3.09883 6.1104C3.03643 6.17638 3.00083 6.26703 3.00001 6.36201C2.9992 6.457 3.03323 6.54837 3.09447 6.61563L4.25472 7.8998C4.37432 8.03094 4.56759 8.0337 4.69028 7.90604C5.59677 7.00712 6.77589 6.50905 7.99881 6.50849ZM10.9999 9.22765C11.0018 9.33019 10.9651 9.42906 10.8983 9.5009L8.73967 11.8903C8.67639 11.9605 8.59011 12 8.50009 12C8.41007 12 8.3238 11.9605 8.26052 11.8903L6.10149 9.5009C6.03479 9.42901 5.9981 9.33011 6.00008 9.22756C6.00205 9.12502 6.04252 9.02791 6.11193 8.95918C7.49054 7.68027 9.50964 7.68027 10.8883 8.95918C10.9576 9.02797 10.998 9.12511 10.9999 9.22765Z" fill="#170E2B"/>
</svg>
